<?xml version="1.0" encoding="utf-8" standalone="no"?>
<!DOCTYPE svg PUBLIC "-//W3C//DTD SVG 1.1//EN"
  "http://www.w3.org/Graphics/SVG/1.1/DTD/svg11.dtd">
<svg xmlns:xlink="http://www.w3.org/1999/xlink" width="288pt" height="144pt" viewBox="0 0 288 144" xmlns="http://www.w3.org/2000/svg" version="1.1">
 <metadata>
  <rdf:RDF xmlns:dc="http://purl.org/dc/elements/1.1/" xmlns:cc="http://creativecommons.org/ns#" xmlns:rdf="http://www.w3.org/1999/02/22-rdf-syntax-ns#">
   <cc:Work>
    <dc:type rdf:resource="http://purl.org/dc/dcmitype/StillImage"/>
    <dc:date>2024-06-08T23:04:49.243022</dc:date>
    <dc:format>image/svg+xml</dc:format>
    <dc:creator>
     <cc:Agent>
      <dc:title>Matplotlib v3.7.1, https://matplotlib.org/</dc:title>
     </cc:Agent>
    </dc:creator>
   </cc:Work>
  </rdf:RDF>
 </metadata>
 <defs>
  <style type="text/css">*{stroke-linejoin: round; stroke-linecap: butt}</style>
 </defs>
 <g id="figure_1">
  <g id="patch_1">
   <path d="M 0 144 
L 288 144 
L 288 0 
L 0 0 
z
" style="fill: #ffffff"/>
  </g>
  <g id="axes_1">
   <g id="line2d_1">
    <path d="M 22.909091 70.848653 
L 25.355372 71.28293 
L 27.801653 71.704872 
L 30.247934 72.108538 
L 32.694215 72.488333 
L 35.140496 72.839056 
L 37.586777 73.155962 
L 40.033058 73.434798 
L 42.479339 73.671854 
L 44.92562 73.863995 
L 47.371901 74.008691 
L 49.818182 74.104046 
L 52.264463 74.148813 
L 54.710744 74.142407 
L 57.157025 74.084912 
L 59.603306 73.97708 
L 62.049587 73.820319 
L 64.495868 73.616689 
L 66.942149 73.36887 
L 69.38843 73.080147 
L 71.834711 72.754369 
L 74.280992 72.395914 
L 76.727273 72.009647 
L 79.173554 71.600873 
L 81.619835 71.175279 
L 84.066116 70.738881 
L 86.512397 70.297963 
L 88.958678 69.859014 
L 91.404959 69.42866 
L 93.85124 69.0136 
L 96.297521 68.620533 
L 98.743802 68.256089 
L 101.190083 67.926762 
L 103.636364 67.638838 
L 106.082645 67.398326 
L 108.528926 67.210897 
L 110.975207 67.081814 
L 113.421488 67.015876 
L 115.867769 67.017356 
L 118.31405 67.089955 
L 120.760331 67.236747 
L 123.206612 67.460138 
L 125.652893 67.761831 
L 128.099174 68.14279 
L 130.545455 68.603217 
L 132.991736 69.142534 
L 135.438017 69.759368 
L 137.884298 70.451548 
L 140.330579 71.216107 
L 142.77686 72.04929 
L 145.22314 72.946573 
L 147.669421 73.902683 
L 150.115702 74.911632 
L 152.561983 75.966753 
L 155.008264 77.060742 
L 157.454545 78.185712 
L 159.900826 79.333248 
L 162.347107 80.494468 
L 164.793388 81.660091 
L 167.239669 82.820508 
L 169.68595 83.965858 
L 172.132231 85.086109 
L 174.578512 86.171136 
L 177.024793 87.21081 
L 179.471074 88.195082 
L 181.917355 89.11407 
L 184.363636 89.958145 
L 186.809917 90.718019 
L 189.256198 91.384829 
L 191.702479 91.950224 
L 194.14876 92.40644 
L 196.595041 92.746381 
L 199.041322 92.963691 
L 201.487603 93.052822 
L 203.933884 93.0091 
L 206.380165 92.828777 
L 208.826446 92.509088 
L 211.272727 92.04829 
L 213.719008 91.445699 
L 216.165289 90.701721 
L 218.61157 89.817872 
L 221.057851 88.796785 
L 223.504132 87.642222 
L 225.950413 86.359059 
L 228.396694 84.953278 
L 230.842975 83.431943 
L 233.289256 81.803164 
L 235.735537 80.076058 
L 238.181818 78.260702 
L 240.628099 76.36807 
L 243.07438 74.409972 
L 245.520661 72.398975 
L 247.966942 70.34833 
L 250.413223 68.271876 
L 252.859504 66.183952 
L 255.305785 64.0993 
L 257.752066 62.032954 
L 260.198347 60.000142 
L 262.644628 58.016166 
L 265.090909 56.096297 
" clip-path="url(#p63208be39e)" style="fill: none; stroke: #1f77b4; stroke-width: 1.5; stroke-linecap: square"/>
   </g>
   <g id="line2d_2">
    <path d="M 22.909091 16.363636 
L 25.355372 17.487603 
L 27.801653 18.61157 
L 30.247934 19.735537 
L 32.694215 20.859504 
L 35.140496 21.983471 
L 37.586777 23.107438 
L 40.033058 24.231405 
L 42.479339 25.355372 
L 44.92562 26.479339 
L 47.371901 27.603306 
L 49.818182 28.727273 
L 52.264463 29.85124 
L 54.710744 30.975207 
L 57.157025 32.099174 
L 59.603306 33.22314 
L 62.049587 34.347107 
L 64.495868 35.471074 
L 66.942149 36.595041 
L 69.38843 37.719008 
L 71.834711 38.842975 
L 74.280992 39.966942 
L 76.727273 41.090909 
L 79.173554 42.214876 
L 81.619835 43.338843 
L 84.066116 44.46281 
L 86.512397 45.586777 
L 88.958678 46.710744 
L 91.404959 47.834711 
L 93.85124 48.958678 
L 96.297521 50.082645 
L 98.743802 51.206612 
L 101.190083 52.330579 
L 103.636364 53.454545 
L 106.082645 54.578512 
L 108.528926 55.702479 
L 110.975207 56.826446 
L 113.421488 57.950413 
L 115.867769 59.07438 
L 118.31405 60.198347 
L 120.760331 61.322314 
L 123.206612 62.446281 
L 125.652893 63.570248 
L 128.099174 64.694215 
L 130.545455 65.818182 
L 132.991736 66.942149 
L 135.438017 68.066116 
L 137.884298 69.190083 
L 140.330579 70.31405 
L 142.77686 71.438017 
L 145.22314 72.561983 
L 147.669421 73.68595 
L 150.115702 74.809917 
L 152.561983 75.933884 
L 155.008264 77.057851 
L 157.454545 78.181818 
L 159.900826 79.305785 
L 162.347107 80.429752 
L 164.793388 81.553719 
L 167.239669 82.677686 
L 169.68595 83.801653 
L 172.132231 84.92562 
L 174.578512 86.049587 
L 177.024793 87.173554 
L 179.471074 88.297521 
L 181.917355 89.421488 
L 184.363636 90.545455 
L 186.809917 91.669421 
L 189.256198 92.793388 
L 191.702479 93.917355 
L 194.14876 95.041322 
L 196.595041 96.165289 
L 199.041322 97.289256 
L 201.487603 98.413223 
L 203.933884 99.53719 
L 206.380165 100.661157 
L 208.826446 101.785124 
L 211.272727 102.909091 
L 213.719008 104.033058 
L 216.165289 105.157025 
L 218.61157 106.280992 
L 221.057851 107.404959 
L 223.504132 108.528926 
L 225.950413 109.652893 
L 228.396694 110.77686 
L 230.842975 111.900826 
L 233.289256 113.024793 
L 235.735537 114.14876 
L 238.181818 115.272727 
L 240.628099 116.396694 
L 243.07438 117.520661 
L 245.520661 118.644628 
L 247.966942 119.768595 
L 250.413223 120.892562 
L 252.859504 122.016529 
L 255.305785 123.140496 
L 257.752066 124.264463 
L 260.198347 125.38843 
L 262.644628 126.512397 
L 265.090909 127.636364 
" clip-path="url(#p63208be39e)" style="fill: none; stroke: #ff7f0e; stroke-width: 1.5; stroke-linecap: square"/>
   </g>
  </g>
 </g>
 <defs>
  <clipPath id="p63208be39e">
   <rect x="10.8" y="10.8" width="266.4" height="122.4"/>
  </clipPath>
 </defs>
</svg>
